<?xml version="1.0" standalone="no"?>
<!DOCTYPE svg PUBLIC "-//W3C//DTD SVG 20010904//EN"
 "http://www.w3.org/TR/2001/REC-SVG-20010904/DTD/svg10.dtd">
<svg version="1.0" xmlns="http://www.w3.org/2000/svg"
 width="1920.000000pt" height="1080.000000pt" viewBox="0 0 1920.000000 1080.000000"
 preserveAspectRatio="xMidYMid meet">

<g transform="translate(0.000000,1080.000000) scale(0.100000,-0.100000)"
fill="#000000" stroke="none">
<path d="M0 5400 l0 -5400 9600 0 9600 0 0 5400 0 5400 -9600 0 -9600 0 0
-5400z m12350 3292 c38 -20 94 -103 110 -162 6 -21 10 -503 11 -1202 1 -1016
3 -1169 16 -1179 44 -37 43 -18 43 -965 0 -652 -3 -907 -12 -935 -16 -55 -73
-118 -132 -145 -76 -36 -193 -34 -267 4 -67 34 -114 93 -128 164 -8 37 -11
328 -9 941 l3 889 33 29 c31 28 35 29 137 29 l105 0 0 89 0 89 -127 4 c-106 3
-135 7 -168 25 -45 24 -86 64 -107 107 -14 26 -15 18 -21 -120 -29 -693 -386
-1321 -967 -1704 -243 -159 -510 -265 -800 -316 -627 -109 -1253 58 -1741 465
-357 298 -610 706 -714 1156 l-24 100 -1 -825 c0 -807 -1 -826 -21 -870 -27
-60 -74 -107 -134 -136 -40 -19 -67 -24 -134 -24 -46 0 -101 5 -123 12 -55 16
-126 83 -154 143 l-24 50 0 983 c0 1090 -4 1029 65 1058 19 8 53 14 75 14 l40
0 0 215 0 215 -29 0 c-51 0 -157 39 -220 81 -111 74 -173 165 -222 329 -23 74
-23 84 -26 675 -3 583 -3 601 16 632 14 22 33 36 62 44 37 11 46 11 78 -7 73
-39 71 -22 71 -649 0 -607 1 -619 56 -732 29 -60 91 -118 143 -134 54 -16 263
-22 326 -9 81 17 142 63 182 136 60 111 63 139 63 754 0 424 3 561 13 580 15
29 72 70 99 70 35 0 88 -32 103 -61 13 -23 15 -107 15 -504 l0 -476 73 98
c333 445 829 747 1377 838 134 23 402 30 541 16 656 -68 1217 -406 1585 -956
166 -250 295 -590 331 -875 5 -40 10 194 13 615 l5 680 48 105 c49 107 234
453 269 503 43 61 133 83 198 49z m-5160 -47 c61 -31 60 -27 60 -400 0 -319
-1 -342 -20 -372 -13 -22 -32 -36 -61 -44 -37 -11 -46 -11 -78 7 -70 37 -72
47 -69 419 3 355 3 355 57 388 33 21 74 21 111 2z m320 -2 c54 -32 55 -38 55
-402 0 -376 0 -375 -70 -408 -48 -23 -108 -5 -135 40 -19 30 -20 53 -20 370 0
220 4 345 11 358 15 28 69 59 102 59 16 0 42 -8 57 -17z m1590 -5418 c14 -68
5 -134 -57 -410 -67 -299 -62 -333 44 -321 57 7 159 41 169 58 18 29 82 360
109 563 11 82 21 124 32 132 38 29 223 46 223 21 0 -74 -139 -782 -177 -903
-86 -277 -244 -440 -436 -453 -119 -7 -179 34 -179 123 0 81 46 134 164 190
37 18 96 40 131 50 l64 17 17 52 c9 29 16 58 16 65 0 7 -24 -1 -59 -18 -182
-93 -317 -94 -377 -4 -45 67 -39 148 31 443 59 246 61 306 14 372 -31 43 -25
56 29 63 26 3 54 8 62 9 8 2 50 4 92 5 l77 1 11 -55z m-2320 -9 c0 -79 -3 -80
-185 -71 l-154 7 -6 -39 c-11 -60 -55 -276 -62 -297 -5 -17 1 -18 98 -15 57 1
125 2 152 1 42 -2 47 -4 47 -26 0 -12 -5 -36 -10 -52 l-10 -30 -144 1 c-80 0
-147 -3 -151 -7 -15 -15 -65 -329 -65 -410 0 -10 -13 -20 -32 -27 -48 -14
-195 -25 -201 -14 -10 16 19 194 78 477 30 148 58 302 62 342 5 67 3 78 -22
129 -16 30 -25 58 -21 62 14 14 114 20 369 22 l257 1 0 -54z m1527 -203 c-3
-54 -9 -108 -13 -120 -6 -22 -4 -23 65 -23 77 0 80 -3 58 -54 -13 -29 -15 -29
-79 -27 l-65 2 -28 -138 c-15 -76 -29 -177 -32 -225 -6 -99 -6 -100 64 -69
l42 19 15 -23 c15 -22 14 -25 -17 -51 -49 -42 -136 -77 -199 -82 -55 -4 -59
-3 -93 31 -33 33 -35 39 -35 101 0 37 15 140 35 233 19 92 35 174 35 182 0 10
-9 12 -40 7 l-40 -6 0 50 0 50 49 0 c48 0 48 0 55 38 3 20 6 65 6 99 0 34 5
65 10 68 17 11 133 33 174 34 l39 1 -6 -97z m-1187 -138 c23 -8 49 -15 56 -15
8 0 14 7 14 15 0 21 44 19 125 -6 60 -18 66 -23 61 -42 -43 -161 -83 -417 -72
-461 l6 -25 42 19 c25 11 45 15 48 9 4 -5 25 9 49 31 23 22 55 47 70 55 28 14
30 14 65 -26 20 -22 46 -60 58 -84 22 -45 43 -56 66 -33 32 32 -2 104 -103
218 -125 141 -152 224 -93 287 76 82 266 100 343 32 58 -52 54 -112 -16 -200
l-31 -39 27 -31 c80 -96 87 -198 17 -272 -45 -48 -119 -80 -197 -85 -88 -5
-142 9 -200 54 l-46 35 -57 -36 c-91 -56 -157 -68 -212 -40 -16 9 -32 26 -36
40 l-6 24 -52 -35 c-146 -97 -279 -28 -301 156 -8 70 9 198 36 273 26 70 98
153 154 178 49 23 128 24 185 4z m2909 -4 c52 -18 54 -18 58 0 4 13 14 19 33
19 28 0 160 -37 160 -45 0 -2 -11 -49 -24 -104 -31 -128 -61 -340 -52 -374 l6
-26 43 19 42 19 14 -26 c13 -25 12 -28 -15 -49 -88 -71 -194 -100 -252 -70
-18 9 -34 27 -38 41 l-6 24 -52 -35 c-187 -124 -334 20 -297 291 15 112 45
187 100 247 78 87 166 108 280 69z m927 -15 c19 -19 34 -41 34 -50 0 -14 10
-10 47 15 57 39 132 69 176 69 47 0 93 -32 107 -76 15 -44 9 -100 -25 -251
-25 -112 -34 -197 -21 -210 3 -4 23 1 42 11 20 9 38 16 39 14 1 -2 8 -14 15
-27 11 -21 9 -26 -16 -47 -80 -64 -188 -97 -244 -74 -68 28 -74 92 -30 300 46
215 41 238 -43 206 l-43 -16 -32 -157 c-18 -87 -37 -191 -42 -231 -4 -41 -11
-76 -14 -79 -8 -8 -177 -24 -187 -17 -16 9 -10 125 11 224 43 200 51 246 45
269 -5 21 -10 23 -42 18 -71 -12 -77 -22 -112 -184 -27 -130 -50 -264 -51
-300 0 -14 -28 -20 -132 -28 l-78 -7 0 39 c0 21 18 127 40 237 22 109 40 209
40 223 0 14 -12 47 -27 74 -19 37 -24 52 -15 61 6 6 63 13 131 16 l120 5 6
-29 c13 -58 13 -58 43 -38 67 46 136 74 179 74 38 0 50 -5 79 -34z m1080 0
c19 -19 34 -41 34 -50 0 -14 10 -10 47 15 57 39 132 69 176 69 47 0 93 -32
107 -76 15 -44 9 -100 -25 -251 -25 -112 -34 -197 -21 -210 3 -4 23 1 42 11
20 9 38 16 39 14 1 -2 8 -14 15 -27 11 -21 9 -26 -16 -47 -80 -64 -188 -97
-244 -74 -68 28 -74 88 -30 299 45 219 41 239 -43 207 l-43 -16 -32 -157 c-18
-87 -37 -191 -42 -231 -4 -41 -11 -76 -14 -79 -8 -8 -177 -24 -187 -17 -17 10
-9 129 17 249 55 263 55 271 -3 262 -71 -12 -77 -22 -112 -184 -27 -130 -50
-264 -51 -300 0 -14 -28 -20 -132 -28 l-78 -7 0 39 c0 21 18 127 40 237 22
109 40 209 40 223 0 14 -12 47 -27 74 -19 37 -24 52 -15 61 6 6 63 13 131 16
l120 5 6 -29 c13 -58 13 -58 43 -38 67 46 136 74 179 74 38 0 50 -5 79 -34z
m748 -56 c-1 -47 -14 -143 -28 -214 -14 -72 -26 -149 -26 -173 0 -37 3 -43 24
-49 15 -3 42 2 70 14 52 23 44 -3 81 282 15 107 28 196 30 198 10 10 87 22
146 22 l67 0 -14 -65 c-7 -35 -29 -174 -49 -308 -47 -326 -73 -410 -163 -509
-85 -94 -237 -118 -311 -49 -40 37 -42 86 -7 129 30 35 124 86 189 102 26 7
49 16 52 19 2 4 7 31 11 60 l7 52 -60 -30 c-151 -77 -268 -54 -289 55 -4 21 4
94 21 187 14 83 29 193 32 244 l6 92 51 11 c65 13 104 18 136 16 25 -1 25 -2
24 -86z"/>
<path d="M9470 8416 c-574 -76 -1067 -369 -1393 -828 -349 -492 -454 -1103
-291 -1688 161 -572 590 -1059 1138 -1290 664 -281 1411 -184 1988 257 192
147 352 325 483 538 246 400 337 848 269 1325 -84 584 -431 1105 -944 1416
-219 133 -462 220 -718 259 -149 22 -405 27 -532 11z m577 -375 c666 -137
1178 -665 1300 -1341 24 -134 24 -420 -1 -555 -39 -217 -131 -441 -258 -632
-91 -137 -292 -341 -425 -431 -268 -182 -552 -277 -868 -289 -360 -14 -677 75
-975 273 -368 245 -618 625 -707 1079 -27 140 -25 475 5 610 113 507 436 925
887 1146 133 65 324 126 465 149 154 26 427 21 577 -9z"/>
<path d="M9555 8030 c-235 -25 -501 -120 -700 -250 -364 -238 -613 -604 -706
-1040 -33 -153 -33 -445 -1 -608 86 -427 325 -792 676 -1031 185 -126 370
-203 602 -252 156 -33 439 -34 600 -1 227 45 450 141 634 270 112 79 296 259
364 356 131 186 214 363 266 571 117 464 14 964 -279 1355 -241 322 -593 538
-990 609 -131 24 -350 34 -466 21z m396 -65 c83 -30 160 -114 175 -192 4 -23
15 -38 34 -48 15 -8 41 -30 57 -49 61 -69 68 -154 17 -227 -15 -22 -182 -192
-371 -379 l-344 -339 618 -3 618 -3 48 -23 c57 -29 122 -113 132 -172 6 -33
13 -43 42 -57 47 -22 90 -84 99 -140 15 -100 40 -70 -664 -776 -359 -360 -664
-657 -684 -668 -72 -37 -144 -23 -212 43 -42 40 -56 48 -88 48 -117 0 -238
130 -238 255 1 96 15 114 407 507 l367 367 -595 3 c-661 3 -623 -1 -687 72
-21 24 -40 36 -57 36 -56 0 -116 23 -160 62 -58 51 -86 106 -92 180 -11 118
-40 84 676 799 355 355 663 658 683 673 63 47 141 58 219 31z"/>
<path d="M9186 7213 c-352 -351 -648 -648 -659 -661 -31 -37 -33 -100 -5 -142
26 -38 107 -76 115 -53 16 46 132 168 655 688 326 325 620 614 652 643 l59 53
-16 35 c-21 44 -71 74 -122 74 -39 0 -48 -8 -679 -637z"/>
<path d="M9335 6550 l-49 -50 762 0 c422 0 762 4 762 9 0 4 -9 20 -21 35 -46
58 -20 56 -741 56 l-664 0 -49 -50z"/>
<path d="M9743 5708 c-220 -222 -406 -413 -412 -425 -32 -64 12 -151 88 -173
29 -8 32 -6 47 23 9 18 228 245 487 505 l472 472 -140 0 -140 0 -402 -402z"/>
<path d="M12234 8363 c-15 -26 -65 -122 -111 -212 l-83 -164 0 -707 c0 -594 2
-709 14 -719 9 -8 47 -11 107 -9 l94 3 5 925 c3 509 4 926 4 928 -1 2 -14 -19
-30 -45z"/>
<path d="M7560 6920 c-25 -10 -69 -22 -97 -25 l-53 -7 0 -214 0 -214 40 0 c22
0 56 -7 75 -14 l35 -15 0 65 c0 84 17 235 39 352 10 50 15 92 12 91 -3 -1 -26
-9 -51 -19z"/>
<path d="M7232 5333 l3 -898 60 0 60 0 3 898 2 897 -65 0 -65 0 2 -897z"/>
<path d="M12190 5131 c0 -695 2 -820 14 -830 8 -7 36 -11 63 -9 l48 3 3 828 2
827 -65 0 -65 0 0 -819z"/>
<path d="M9100 2184 c-65 -20 -140 -65 -163 -96 -17 -23 -19 -32 -9 -53 30
-66 152 8 216 133 19 36 18 36 -44 16z"/>
<path d="M7720 2813 c-29 -11 -49 -35 -43 -51 9 -24 40 -63 64 -80 18 -13 23
-12 45 9 30 28 42 85 23 105 -16 16 -67 26 -89 17z"/>
<path d="M7037 2771 c-15 -18 -36 -62 -48 -99 -26 -85 -36 -255 -17 -292 15
-28 50 -36 90 -21 23 9 26 16 37 113 6 57 22 150 35 208 13 58 22 107 20 109
-1 2 -23 6 -47 8 -39 5 -46 2 -70 -26z"/>
<path d="M9937 2771 c-39 -47 -68 -150 -73 -266 -6 -119 4 -148 53 -153 60 -6
69 7 82 120 6 57 22 150 35 208 13 58 22 107 20 109 -1 2 -23 6 -47 8 -39 5
-46 2 -70 -26z"/>
<path d="M12732 2089 c-58 -28 -81 -56 -67 -79 11 -18 58 -10 92 16 28 21 63
70 63 89 0 12 -30 3 -88 -26z"/>
</g>
</svg>
