<?xml version="1.0" standalone="no"?>
<!DOCTYPE svg PUBLIC "-//W3C//DTD SVG 20010904//EN"
 "http://www.w3.org/TR/2001/REC-SVG-20010904/DTD/svg10.dtd">
<svg version="1.0" xmlns="http://www.w3.org/2000/svg"
 width="820.000000pt" height="312.000000pt" viewBox="0 0 820.000000 312.000000"
 preserveAspectRatio="xMidYMid meet">

<g transform="translate(0.000000,312.000000) scale(0.100000,-0.100000)"
fill="#000000" stroke="none">
<path d="M0 1560 l0 -1560 4100 0 4100 0 0 1560 0 1560 -4100 0 -4100 0 0
-1560z m2297 753 c16 -25 19 -79 27 -636 l8 -608 -23 -25 c-32 -35 -90 -33
-118 3 -21 25 -21 35 -19 292 l3 266 38 3 c31 3 37 7 37 26 0 20 -6 24 -42 29
-25 3 -49 14 -59 26 -15 19 -16 16 -22 -52 -20 -237 -192 -454 -419 -528 -102
-33 -271 -34 -373 -2 -76 24 -167 78 -234 138 -57 51 -129 163 -157 243 l-24
67 0 -221 c0 -209 -1 -223 -21 -248 -16 -21 -29 -26 -64 -26 -35 0 -48 5 -64
27 -21 25 -21 35 -19 317 l3 291 23 3 c20 3 22 9 22 68 0 59 -2 64 -22 64 -34
0 -85 46 -102 92 -14 35 -16 76 -14 223 3 169 4 180 22 183 39 8 46 -22 46
-199 0 -179 6 -209 47 -228 55 -25 132 -7 152 36 7 14 11 90 11 192 0 177 7
207 46 199 18 -3 19 -14 22 -151 l3 -148 40 51 c114 145 303 227 499 217 268
-12 491 -195 560 -459 l19 -73 0 190 1 190 31 65 c59 126 101 157 136 103z
m-1482 -103 l0 -115 -25 0 c-25 0 -25 0 -28 104 -3 121 0 134 30 129 22 -3 23
-6 23 -118z m90 0 l0 -115 -25 0 c-25 0 -25 0 -28 104 -3 121 0 134 30 129 22
-3 23 -6 23 -118z m2223 -73 c6 -53 -10 -59 -123 -52 l-101 7 -18 -93 c-9 -52
-20 -105 -23 -119 l-5 -25 86 3 c103 4 116 -1 104 -45 l-8 -31 -74 5 c-117 9
-122 6 -136 -78 -7 -40 -15 -104 -19 -143 -7 -80 -11 -83 -110 -85 l-54 -1 7
56 c4 31 24 145 45 253 57 285 56 275 32 317 -12 19 -21 39 -21 44 0 14 45 17
235 16 l180 -1 3 -28z m1520 -37 c2 -47 -7 -113 -33 -233 -22 -100 -34 -179
-30 -194 6 -24 9 -25 58 -21 29 2 66 11 82 19 28 13 32 22 52 119 12 58 30
161 40 229 l18 124 32 14 c18 7 53 13 79 13 l47 0 -7 -52 c-13 -103 -96 -515
-115 -569 -28 -81 -67 -155 -107 -199 -77 -85 -216 -119 -269 -65 -34 33 -33
84 2 126 28 33 125 85 180 95 23 4 33 13 38 32 3 15 8 35 11 44 4 14 -6 12
-57 -13 -77 -39 -158 -49 -195 -25 -14 10 -32 34 -41 54 -18 44 -14 87 27 263
33 138 37 211 15 249 -29 51 -15 58 105 56 l65 -1 3 -65z m-516 -62 c2 -35 2
-39 -5 -90 l-7 -48 45 0 c47 0 48 -1 39 -38 -6 -21 -11 -22 -50 -16 -49 7 -43
17 -69 -121 -8 -44 -15 -102 -15 -129 0 -40 3 -47 16 -42 43 16 61 17 67 2 11
-28 -93 -86 -153 -86 -45 0 -80 39 -80 87 0 21 11 92 25 158 14 66 25 121 25
122 0 2 -11 3 -25 3 -21 0 -25 5 -25 30 0 26 3 30 29 30 24 0 29 5 35 31 3 17
6 48 6 69 0 35 3 39 38 48 20 5 52 10 70 11 26 1 32 -3 34 -21z m-776 -138
c19 -8 30 -7 41 1 10 9 26 9 68 0 30 -7 55 -16 55 -21 0 -5 -9 -46 -20 -92
-18 -77 -38 -238 -29 -238 20 1 81 30 111 54 22 16 44 26 53 22 9 -3 30 -28
47 -56 32 -52 45 -60 54 -35 10 26 -5 61 -48 115 -90 109 -98 122 -98 161 0
29 6 43 30 63 55 46 170 49 216 5 32 -30 28 -74 -10 -124 -23 -29 -24 -34 -10
-46 47 -39 58 -128 22 -174 -58 -75 -206 -87 -274 -24 l-22 21 -43 -28 c-24
-15 -62 -29 -86 -32 -36 -4 -46 -1 -64 20 l-22 25 -36 -24 c-45 -31 -109 -27
-146 7 -36 34 -51 114 -37 202 24 157 131 242 248 198z m1904 -1 c25 -9 34 -9
40 1 7 11 19 11 64 1 31 -7 56 -18 56 -25 0 -6 -9 -53 -20 -104 -11 -51 -21
-120 -23 -155 -2 -65 -3 -64 44 -50 24 7 33 -27 12 -44 -33 -26 -98 -53 -130
-53 -22 0 -37 8 -50 24 l-19 24 -40 -24 c-45 -28 -83 -30 -124 -9 -44 23 -63
68 -63 150 1 87 17 147 53 201 47 67 121 90 200 63z m416 -14 c3 -14 8 -25 10
-25 1 0 24 11 50 25 57 30 107 32 134 5 11 -11 20 -24 20 -29 0 -6 25 3 56 20
67 35 109 37 141 7 30 -28 30 -79 2 -210 -25 -115 -22 -133 16 -116 22 10 28
9 35 -2 12 -19 -11 -44 -64 -70 -82 -39 -146 -16 -146 54 0 19 9 78 20 131 30
147 28 159 -32 136 -23 -9 -37 -60 -76 -281 l-8 -45 -62 -3 -62 -3 0 49 c0 28
9 94 20 147 11 53 20 109 20 122 0 23 -3 25 -32 19 -18 -3 -36 -10 -40 -14
-11 -11 -58 -238 -58 -278 0 -38 -12 -44 -86 -44 -52 0 -54 1 -54 28 0 15 12
89 27 165 25 132 26 139 10 173 -9 19 -17 39 -17 44 0 11 31 17 107 19 59 1
63 0 69 -24z m704 6 c0 -31 13 -32 65 -6 61 31 107 32 135 3 11 -12 20 -25 20
-29 0 -4 24 6 53 22 63 35 112 37 144 7 29 -27 30 -64 3 -193 -25 -124 -26
-150 -2 -140 32 13 47 10 47 -10 0 -25 -87 -74 -132 -75 -76 0 -88 53 -51 227
24 116 20 134 -29 117 -32 -11 -41 -38 -71 -221 l-19 -108 -68 -3 -68 -3 7 58
c3 32 16 102 27 156 22 104 21 127 -9 127 -40 0 -54 -24 -78 -141 -13 -63 -24
-130 -24 -150 0 -44 -10 -49 -91 -49 l-60 0 6 38 c4 20 18 95 31 165 l25 128
-20 40 c-16 29 -18 41 -9 44 7 2 20 6 28 8 8 3 43 6 78 6 55 1 62 -1 62 -18z
m690 -29 c0 -26 -9 -99 -21 -161 -11 -62 -18 -119 -15 -127 7 -18 30 -18 64 0
27 14 28 19 46 166 15 123 22 153 37 160 22 12 132 13 125 2 -3 -5 -19 -100
-35 -213 -35 -238 -40 -256 -83 -329 -53 -88 -144 -123 -218 -85 -78 40 -27
123 101 164 29 9 38 18 43 43 3 17 4 33 2 35 -2 3 -23 -5 -47 -17 -24 -13 -63
-23 -92 -24 -41 -1 -52 3 -69 24 -23 28 -22 61 7 240 9 58 14 115 12 128 -3
18 2 24 27 31 17 5 50 10 74 10 l42 1 0 -48z"/>
<path d="M1445 2249 c-71 -9 -180 -48 -232 -84 -56 -38 -138 -121 -174 -176
-55 -86 -82 -181 -82 -289 0 -170 57 -304 178 -418 111 -107 231 -155 384
-155 254 1 474 169 546 417 21 73 22 210 1 289 -35 128 -125 253 -238 330
-100 68 -254 103 -383 86z m147 -100 c80 -17 166 -65 229 -128 185 -185 185
-477 0 -662 -186 -185 -476 -185 -662 0 -185 185 -185 477 0 662 116 115 273
162 433 128z"/>
<path d="M1371 2134 c-243 -65 -389 -316 -326 -559 42 -161 170 -288 331 -329
76 -20 80 -20 64 -1 -7 8 -18 15 -26 15 -7 0 -25 10 -40 23 -47 41 -38 64 79
189 l106 113 -168 3 c-134 2 -171 5 -181 17 -7 8 -21 15 -32 15 -28 0 -68 45
-68 77 0 23 35 64 203 231 243 243 234 239 318 128 16 -21 29 -46 29 -54 0 -8
-48 -64 -107 -123 l-107 -109 178 0 c174 0 177 0 199 -24 43 -48 67 -84 67
-103 0 -12 -77 -99 -192 -217 l-193 -198 48 6 c212 29 378 206 394 421 24 314
-273 561 -576 479z"/>
<path d="M1337 1902 c-103 -104 -187 -193 -187 -199 0 -18 11 -43 19 -43 4 0
98 91 208 202 154 154 199 205 191 215 -6 7 -18 13 -27 13 -9 0 -101 -85 -204
-188z"/>
<path d="M1390 1715 c-11 -13 13 -15 205 -15 192 0 216 2 205 15 -10 12 -46
15 -205 15 -159 0 -195 -3 -205 -15z"/>
<path d="M1501 1466 c-110 -112 -121 -126 -111 -145 6 -12 14 -21 18 -21 4 0
72 65 152 145 l145 145 -41 0 c-38 0 -46 -6 -163 -124z"/>
<path d="M2217 2185 c-27 -55 -27 -58 -27 -255 l0 -200 30 0 30 0 0 255 c0
140 -1 255 -3 255 -2 0 -15 -25 -30 -55z"/>
<path d="M898 1833 c-27 -4 -28 -6 -28 -69 0 -57 2 -64 20 -64 16 0 20 7 20
33 0 17 4 49 9 70 5 20 8 36 7 36 0 -1 -13 -4 -28 -6z"/>
<path d="M820 1385 c0 -220 2 -255 15 -255 13 0 15 35 15 255 0 220 -2 255
-15 255 -13 0 -15 -35 -15 -255z"/>
<path d="M2232 1318 c3 -212 5 -233 21 -236 16 -3 17 13 17 232 0 230 -1 236
-20 236 -20 0 -20 -5 -18 -232z"/>
<path d="M4614 1426 c-54 -25 -86 -59 -77 -82 15 -38 96 7 136 75 23 39 11 40
-59 7z"/>
<path d="M3727 1848 c-16 -12 -16 -15 3 -46 24 -39 47 -39 69 0 13 22 13 29 2
42 -16 19 -51 21 -74 4z"/>
<path d="M3296 1831 c-26 -29 -46 -108 -47 -185 -1 -81 15 -107 55 -88 20 9
25 20 31 74 4 35 13 93 22 130 8 37 12 72 8 78 -10 17 -51 11 -69 -9z"/>
<path d="M5194 1825 c-53 -81 -60 -275 -11 -275 34 0 49 27 58 105 6 44 16
103 23 132 12 45 12 52 -1 57 -30 12 -53 5 -69 -19z"/>
<path d="M7055 1388 c-58 -20 -89 -68 -44 -68 21 0 79 50 79 69 0 6 -1 11 -2
10 -2 0 -16 -5 -33 -11z"/>
</g>
</svg>
